# https://github.com/mikedh/trimesh
v -15.86706638 -12.17522812 0.00000000
v -7.65366888 -18.47759056 0.00000000
v -12.17522812 -15.86706638 0.00000000
v -10.00000000 -17.32050896 0.00000000
v -5.17638111 -19.31851578 0.00000000
v -2.61052394 -19.82889748 0.00000000
v -0.00000000 -20.00000000 0.00000000
v -14.14213562 -14.14213562 0.00000000
v -18.47759056 -7.65366888 0.00000000
v -17.32050896 -10.00000000 0.00000000
v -19.31851578 -5.17638111 0.00000000
v -14.94974709 -4.94974756 -30.00000000
v -15.82028770 -3.88899159 -30.00000000
v -16.46715736 -2.67878413 -30.00000000
v -16.86549759 -1.36563230 -30.00000000
v -19.82889748 -2.61052394 0.00000000
v -14.94974709 -4.94974756 0.00000000
v -15.82028770 -3.88899159 0.00000000
v -16.46715736 -2.67878413 0.00000000
v -16.86549759 -1.36563230 0.00000000
v -12.67878437 -6.46715689 -30.00000000
v -11.36563206 -6.86549711 -30.00000000
v -13.88899136 -5.82028723 -30.00000000
v -10.00000000 -7.00000000 -30.00000000
v -8.63436794 -6.86549711 -30.00000000
v -7.32121611 -6.46715689 -30.00000000
v -6.11100817 -5.82028723 -30.00000000
v -12.67878437 -6.46715689 0.00000000
v -11.36563206 -6.86549711 0.00000000
v -13.88899136 -5.82028723 0.00000000
v -10.00000000 -7.00000000 0.00000000
v -8.63436794 -6.86549711 0.00000000
v -7.32121611 -6.46715689 0.00000000
v -6.11100817 -5.82028723 0.00000000
v -5.05025244 -4.94974756 -30.00000000
v -4.17971277 -3.88899159 -30.00000000
v -3.53284335 -2.67878413 -30.00000000
v -3.13450313 -1.36563230 -30.00000000
v -5.05025244 -4.94974756 0.00000000
v -4.17971277 -3.88899159 0.00000000
v -3.53284335 -2.67878413 0.00000000
v -3.13450313 -1.36563230 0.00000000
v -55.77688980 -5.79555511 43.34461594
v -55.00000000 -6.00000000 42.00000000
v -53.49916840 -5.19615221 39.40240479
v -54.22311020 -5.79555511 40.65538406
v -56.50083160 -5.19615221 44.59759521
v -52.87750244 -4.24264050 38.32644653
v -52.40048218 -3.00000000 37.50083160
v -57.12249756 -4.24264050 45.67355347
v -57.59951782 -3.00000000 46.49916840
v -52.10061264 -1.55291426 36.98183060
v -57.89938736 -1.55291426 47.01816940
v -15.86706638 -12.17522812 80.00000000
v -7.65366888 -18.47759056 80.00000000
v -12.17522812 -15.86706638 80.00000000
v -10.00000000 -17.32050896 80.00000000
v -5.17638111 -19.31851578 80.00000000
v -2.61052394 -19.82889748 80.00000000
v -0.00000000 -20.00000000 80.00000000
v -14.14213562 -14.14213562 80.00000000
v -7.26662445 -12.97393990 84.03199768
v -7.33141613 -11.58322716 80.00000000
v -8.56877518 -11.88973808 82.80465698
v -7.74182415 -11.75177574 80.80770111
v -8.47292423 -10.77994251 80.00000000
v -8.99193382 -10.36433887 80.00000000
v -9.71117878 -10.53464794 81.55992889
v -10.40670681 -10.53069687 83.59066772
v -5.37343168 -13.86456871 84.02516937
v -5.62557840 -12.65867233 80.24579620
v -5.48614740 -12.58497906 80.00000000
v -3.70820522 -13.21583939 80.00000000
v -6.50832844 -12.94002724 82.10162354
v -4.51888323 -13.74366283 82.03875732
v -3.30175543 -14.49588871 84.00811005
v -2.43689775 -14.26584816 82.05701447
v -1.23363698 -14.81532478 84.00393677
v -3.45210290 -13.28595829 80.00000000
v -3.58015394 -13.36509800 80.20719147
v -1.23485374 -13.69473743 80.00589752
v -1.23850656 -13.69114876 80.00000000
v -1.23100436 -13.69182301 80.00000000
v -5.85437918 -12.40951538 80.00000000
v -7.88596678 -12.75976181 86.00000000
v -7.26662445 -12.97393990 87.96800232
v -9.23463058 -11.75764561 84.78370667
v -9.23463058 -11.75764561 87.21629333
v -8.56877518 -11.88973808 89.19534302
v -7.74182415 -11.75177574 91.19229889
v -10.54360580 -10.66922569 86.00000000
v -10.40670681 -10.53069687 88.40933228
v -9.71117878 -10.53464794 90.44007111
v -8.81677914 -10.32286453 92.37988281
v -4.09899807 -14.42907524 86.00000000
v -5.37343168 -13.86456871 87.97483063
v -6.05033016 -13.72565174 86.00000000
v -6.50832844 -12.94002724 89.89837646
v -5.62557840 -12.65867233 91.75420380
v -4.51888323 -13.74366283 89.96124268
v -2.06928372 -14.85658360 86.00000000
v -3.30175543 -14.49588871 87.99188995
v -1.23363698 -14.81532478 87.99606323
v -2.43689775 -14.26584816 89.94298553
v -3.58015394 -13.36509800 91.79280853
v -1.23485374 -13.69473743 91.99410248
v -2.34651709 -12.60266781 93.78887939
v -6.80985737 -11.36903095 93.02645111
v -4.63525486 -12.13525486 93.50000000
v -5.57622051 -10.60660172 95.02251434
v -3.55629492 -11.37978458 95.10237885
v -1.21712780 -11.70306587 95.30359650
v -2.40933061 -10.40670681 96.53069305
v -19.31180382 -5.19615221 59.15510178
v -19.31851578 -5.17638111 59.12146759
v -19.10833549 -5.79555511 60.94392395
v -19.15397263 -5.66111279 60.54270554
v -19.05314255 -5.95814705 62.40214157
v -19.03893471 -6.00000000 62.77750397
v -19.09527969 -5.83401108 64.20107269
v -19.10833549 -5.79555511 64.53089142
v -19.27607346 -5.30141211 65.81174469
v -19.31180382 -5.19615221 66.08458710
v -19.31851578 -5.17638111 66.11046600
v -19.36100388 -4.96277523 58.77541733
v -19.50424957 -4.24264050 57.60877228
v -19.75142479 -3.00000000 56.36473083
v -19.82889748 -2.61052394 56.13365173
v -19.50424957 -4.24264050 67.40853882
v -19.89821625 -1.55291426 55.58765793
v -18.47759056 -7.65366888 80.00000000
v -17.32050896 -10.00000000 80.00000000
v -19.31851578 -5.17638111 80.00000000
v -19.75142479 -3.00000000 68.36695862
v -19.82889748 -2.61052394 68.50851440
v -19.82889748 -2.61052394 80.00000000
v -19.89821625 -1.55291426 68.97439575
v -14.81532478 -1.99606657 84.76636505
v -14.81532478 -1.99606657 87.23363495
v -11.37978458 -9.10237694 82.44370270
v -12.60266781 -7.78887749 83.65348053
v -9.66280651 -9.70820427 80.00000000
v -10.42548466 -8.91106319 80.00000000
v -10.60660172 -9.02251434 80.42378235
v -10.86851215 -8.33682346 80.00000000
v -11.65438557 -7.20280647 80.00000000
v -12.13525486 -7.50000000 81.36474609
v -12.25094128 -6.15643597 80.00000000
v -12.49821758 -5.65478897 80.00000000
v -12.65867233 -5.75420618 80.37442017
v -13.36509800 -5.79281092 82.41984558
v -11.70306587 -9.30359364 84.78287506
v -11.70306587 -9.30359364 87.21712494
v -11.37978458 -9.10237694 89.55629730
v -12.75976181 -7.88596678 86.00000000
v -12.60266781 -7.78887749 88.34651947
v -10.60660172 -9.02251434 91.57621765
v -7.70063162 -9.69866657 94.46381378
v -9.69866657 -8.46381283 93.70063019
v -8.46381283 -7.70063162 95.69866943
v -12.13525486 -7.50000000 90.63525391
v -11.36903095 -7.02644777 92.80986023
v -13.69473743 -5.99410582 84.76514435
v -13.69473743 -5.99410582 87.23485565
v -13.36509800 -5.79281092 89.58015442
v -12.65867233 -5.75420618 91.62557983
v -11.75177574 -5.19229507 93.74182129
v -10.32286453 -6.37988091 94.81678009
v -9.02251434 -5.57622051 96.60660553
v -6.37988091 -8.81677914 96.32286072
v -4.44006872 -9.71117878 96.53464508
v -5.19229507 -7.74182415 97.75177765
v -1.21629441 -9.23463058 97.75764465
v -3.19534302 -8.56877518 97.88973999
v -7.02644777 -6.80985737 97.36903381
v -3.89837861 -6.50832844 98.94002533
v -5.75420618 -5.62557840 98.65866852
v -1.96800566 -7.26662445 98.97393799
v -1.97483063 -5.37343168 99.86457062
v -12.77800941 -4.96705437 80.00000000
v -13.14536667 -3.91444087 80.00000000
v -13.74366283 -3.96124125 81.48111725
v -14.26584816 -3.94298339 83.56310272
v -13.35413647 -3.03680754 80.00000000
v -13.56980610 -1.97257185 80.00000000
v -13.86456871 -1.97483063 80.62657166
v -14.49588871 -1.99188721 82.69824219
v -13.73598099 -0.14683856 80.00000000
v -14.45791912 -3.99607062 86.00000000
v -14.26584816 -3.94298339 88.43689728
v -13.74366283 -3.96124125 90.51888275
v -12.94002724 -3.89837861 92.50833130
v -11.88973808 -3.19534302 94.56877136
v -10.53464794 -4.44006872 95.71118164
v -7.50000000 -4.63525486 98.13525391
v -9.10237694 -3.55629492 97.37978363
v -14.49588871 -1.99188721 89.30175781
v -13.86456871 -1.97483063 91.37342834
v -12.97393990 -1.96800566 93.26662445
v -11.75764561 -1.21629441 95.23462677
v -10.53069687 -2.40933061 96.40670776
v -7.78887749 -2.34651709 98.60266876
v -9.30359364 -1.21712780 97.70306396
v -3.96124125 -4.51888323 99.74365997
v -5.79281092 -3.58015394 99.36509705
v -1.99188721 -3.30175543 100.49588776
v -3.94298339 -2.43689775 100.26584625
v -5.99410582 -1.23485374 99.69474030
v -1.99606657 -1.23363698 100.81532288
v -17.00000000 0.00000000 -30.00000000
v -16.86549759 1.36563230 -30.00000000
v -16.46715736 2.67878413 -30.00000000
v -15.82028770 3.88899159 -30.00000000
v -14.94974709 4.94974756 -30.00000000
v -20.00000000 0.00000000 0.00000000
v -17.00000000 0.00000000 0.00000000
v -16.86549759 1.36563230 0.00000000
v -19.82889748 2.61052394 0.00000000
v -16.46715736 2.67878413 0.00000000
v -15.82028770 3.88899159 0.00000000
v -14.94974709 4.94974756 0.00000000
v -19.31851578 5.17638111 0.00000000
v -18.47759056 7.65366888 0.00000000
v -10.00000000 0.00000000 -30.00000000
v -3.00000000 0.00000000 -30.00000000
v -3.13450313 1.36563230 -30.00000000
v -4.17971277 3.88899159 -30.00000000
v -5.05025244 4.94974756 -30.00000000
v -3.53284335 2.67878413 -30.00000000
v -3.00000000 0.00000000 0.00000000
v -3.13450313 1.36563230 0.00000000
v -4.17971277 3.88899159 0.00000000
v -5.05025244 4.94974756 0.00000000
v -3.53284335 2.67878413 0.00000000
v -13.88899136 5.82028723 -30.00000000
v -12.67878437 6.46715689 -30.00000000
v -11.36563206 6.86549711 -30.00000000
v -10.00000000 7.00000000 -30.00000000
v -8.63436794 6.86549711 -30.00000000
v -7.32121611 6.46715689 -30.00000000
v -6.11100817 5.82028723 -30.00000000
v -13.88899136 5.82028723 0.00000000
v -12.67878437 6.46715689 0.00000000
v -11.36563206 6.86549711 0.00000000
v -10.00000000 7.00000000 0.00000000
v -8.63436794 6.86549711 0.00000000
v -7.32121611 6.46715689 0.00000000
v -6.11100817 5.82028723 0.00000000
v -17.32050896 10.00000000 0.00000000
v -15.86706638 12.17522812 0.00000000
v -14.14213562 14.14213562 0.00000000
v -12.17522812 15.86706638 0.00000000
v -10.00000000 17.32050896 0.00000000
v -7.65366888 18.47759056 0.00000000
v -5.17638111 19.31851578 0.00000000
v -2.61052394 19.82889748 0.00000000
v -55.00000000 0.00000000 42.00000000
v -51.99833298 0.00000000 36.80480957
v -52.10061264 1.55291426 36.98183060
v -58.00166702 0.00000000 47.19519043
v -57.89938736 1.55291426 47.01816940
v -52.40048218 3.00000000 37.50083160
v -52.87750244 4.24264050 38.32644653
v -57.59951782 3.00000000 46.49916840
v -57.12249756 4.24264050 45.67355347
v -55.77688980 5.79555511 43.34461594
v -55.00000000 6.00000000 42.00000000
v -53.49916840 5.19615221 39.40240479
v -54.22311020 5.79555511 40.65538406
v -56.50083160 5.19615221 44.59759521
v -20.00000000 0.00000000 55.29273605
v -19.89821625 1.55291426 55.58765793
v -19.82889748 2.61052394 56.13365173
v -19.75142479 3.00000000 56.36473083
v -19.50424957 4.24264050 57.60877228
v -19.45611191 4.48463821 58.00081635
v -19.50424957 4.24264050 67.40853882
v -19.31851578 5.17638111 59.12146759
v -19.31180382 5.19615221 59.15510178
v -19.26390266 5.33726883 59.57624435
v -19.10833549 5.79555511 60.94392395
v -19.09337044 5.83963680 61.33927536
v -19.03893471 6.00000000 62.77750397
v -19.05265999 5.95956993 63.12424850
v -19.31851578 5.17638111 66.11046600
v -19.31180382 5.19615221 66.08458710
v -19.14557457 5.68584871 64.81525421
v -19.10833549 5.79555511 64.53089142
v -20.00000000 0.00000000 69.15171051
v -19.89821625 1.55291426 68.97439575
v -20.00000000 0.00000000 80.00000000
v -14.85658360 0.00000000 83.93071747
v -19.82889748 2.61052394 68.50851440
v -19.75142479 3.00000000 68.36695862
v -19.82889748 2.61052394 80.00000000
v -15.00000000 0.00000000 86.00000000
v -14.85658360 0.00000000 88.06928253
v -14.81532478 1.99606657 84.76636505
v -14.81532478 1.99606657 87.23363495
v -19.31851578 5.17638111 80.00000000
v -18.47759056 7.65366888 80.00000000
v -13.74379539 0.00000000 80.00000000
v -13.73598099 0.14683856 80.00000000
v -14.42907524 0.00000000 81.90100098
v -13.56980610 1.97257185 80.00000000
v -13.86456871 1.97483063 80.62657166
v -14.49588871 1.99188721 82.69824219
v -13.35413647 3.03680754 80.00000000
v -13.14536667 3.91444087 80.00000000
v -12.77800941 4.96705437 80.00000000
v -13.74366283 3.96124125 81.48111725
v -14.26584816 3.94298339 83.56310272
v -14.42907524 0.00000000 90.09899902
v -13.72565174 0.00000000 92.05033112
v -14.49588871 1.99188721 89.30175781
v -13.86456871 1.97483063 91.37342834
v -12.75976181 0.00000000 93.88596344
v -11.75764561 1.21629441 95.23462677
v -12.97393990 1.96800566 93.26662445
v -10.66922569 0.00000000 96.54360199
v -9.30359364 1.21712780 97.70306396
v -7.88596678 0.00000000 98.75976562
v -10.53069687 2.40933061 96.40670776
v -7.78887749 2.34651709 98.60266876
v -14.45791912 3.99607062 86.00000000
v -14.26584816 3.94298339 88.43689728
v -13.74366283 3.96124125 90.51888275
v -12.94002724 3.89837861 92.50833130
v -11.88973808 3.19534302 94.56877136
v -9.10237694 3.55629492 97.37978363
v -10.53464794 4.44006872 95.71118164
v -7.50000000 4.63525486 98.13525391
v -5.99410582 1.23485374 99.69474030
v -3.99607062 0.00000000 100.45791626
v -3.94298339 2.43689775 100.26584625
v -1.99606657 1.23363698 100.81532288
v -5.79281092 3.58015394 99.36509705
v -3.96124125 4.51888323 99.74365997
v -1.99188721 3.30175543 100.49588776
v -12.49821758 5.65478897 80.00000000
v -12.65867233 5.75420618 80.37442017
v -12.25094128 6.15643597 80.00000000
v -13.36509800 5.79281092 82.41984558
v -11.65438557 7.20280647 80.00000000
v -12.13525486 7.50000000 81.36474609
v -12.60266781 7.78887749 83.65348053
v -11.37978458 9.10237694 82.44370270
v -10.86851215 8.33682346 80.00000000
v -10.42548466 8.91106319 80.00000000
v -10.60660172 9.02251434 80.42378235
v -9.66280651 9.70820427 80.00000000
v -13.69473743 5.99410582 84.76514435
v -13.69473743 5.99410582 87.23485565
v -13.36509800 5.79281092 89.58015442
v -12.65867233 5.75420618 91.62557983
v -11.36903095 7.02644777 92.80986023
v -11.75177574 5.19229507 93.74182129
v -9.02251434 5.57622051 96.60660553
v -10.32286453 6.37988091 94.81678009
v -12.75976181 7.88596678 86.00000000
v -12.60266781 7.78887749 88.34651947
v -12.13525486 7.50000000 90.63525391
v -11.70306587 9.30359364 84.78287506
v -11.70306587 9.30359364 87.21712494
v -11.37978458 9.10237694 89.55629730
v -10.60660172 9.02251434 91.57621765
v -9.69866657 8.46381283 93.70063019
v -8.46381283 7.70063162 95.69866943
v -7.70063162 9.69866657 94.46381378
v -5.75420618 5.62557840 98.65866852
v -7.02644777 6.80985737 97.36903381
v -3.89837861 6.50832844 98.94002533
v -1.97483063 5.37343168 99.86457062
v -1.96800566 7.26662445 98.97393799
v -5.19229507 7.74182415 97.75177765
v -6.37988091 8.81677914 96.32286072
v -4.44006872 9.71117878 96.53464508
v -3.19534302 8.56877518 97.88973999
v -1.21629441 9.23463058 97.75764465
v -17.32050896 10.00000000 80.00000000
v -15.86706638 12.17522812 80.00000000
v -8.99193382 10.36433887 80.00000000
v -8.47292423 10.77994251 80.00000000
v -9.71117878 10.53464794 81.55992889
v -10.40670681 10.53069687 83.59066772
v -7.33141613 11.58322716 80.00000000
v -7.74182415 11.75177574 80.80770111
v -8.56877518 11.88973808 82.80465698
v -14.14213562 14.14213562 80.00000000
v -7.26662445 12.97393990 84.03199768
v -5.85437918 12.40951538 80.00000000
v -5.48614740 12.58497906 80.00000000
v -5.62557840 12.65867233 80.24579620
v -3.70820522 13.21583939 80.00000000
v -6.50832844 12.94002724 82.10162354
v -4.51888323 13.74366283 82.03875732
v -5.37343168 13.86456871 84.02516937
v -3.45210290 13.28595829 80.00000000
v -3.58015394 13.36509800 80.20719147
v -1.23485374 13.69473743 80.00589752
v -1.23850656 13.69114876 80.00000000
v -1.23100436 13.69182301 80.00000000
v -2.43689775 14.26584816 82.05701447
v -3.30175543 14.49588871 84.00811005
v -1.23363698 14.81532478 84.00393677
v -10.40670681 10.53069687 88.40933228
v -10.54360580 10.66922569 86.00000000
v -9.71117878 10.53464794 90.44007111
v -8.81677914 10.32286453 92.37988281
v -9.23463058 11.75764561 84.78370667
v -9.23463058 11.75764561 87.21629333
v -7.74182415 11.75177574 91.19229889
v -8.56877518 11.88973808 89.19534302
v -7.88596678 12.75976181 86.00000000
v -7.26662445 12.97393990 87.96800232
v -5.57622051 10.60660172 95.02251434
v -6.80985737 11.36903095 93.02645111
v -4.63525486 12.13525486 93.50000000
v -2.40933061 10.40670681 96.53069305
v -3.55629492 11.37978458 95.10237885
v -1.21712780 11.70306587 95.30359650
v -6.05033016 13.72565174 86.00000000
v -6.50832844 12.94002724 89.89837646
v -5.62557840 12.65867233 91.75420380
v -4.51888323 13.74366283 89.96124268
v -5.37343168 13.86456871 87.97483063
v -4.09899807 14.42907524 86.00000000
v -3.58015394 13.36509800 91.79280853
v -1.23485374 13.69473743 91.99410248
v -2.06928372 14.85658360 86.00000000
v -3.30175543 14.49588871 87.99188995
v -1.23363698 14.81532478 87.99606323
v -2.43689775 14.26584816 89.94298553
v -2.34651709 12.60266781 93.78887939
v -12.17522812 15.86706638 80.00000000
v -10.00000000 17.32050896 80.00000000
v -7.65366888 18.47759056 80.00000000
v -5.17638111 19.31851578 80.00000000
v -2.61052394 19.82889748 80.00000000
v 2.61052394 -19.82889748 0.00000000
v 5.17638111 -19.31851578 0.00000000
v 7.65366888 -18.47759056 0.00000000
v 10.00000000 -17.32050896 0.00000000
v 12.17522812 -15.86706638 0.00000000
v 14.14213562 -14.14213562 0.00000000
v 15.86706638 -12.17522812 0.00000000
v 6.11100817 -5.82028723 -30.00000000
v 7.32121611 -6.46715689 -30.00000000
v 8.63436794 -6.86549711 -30.00000000
v 10.00000000 -7.00000000 -30.00000000
v 11.36563206 -6.86549711 -30.00000000
v 12.67878437 -6.46715689 -30.00000000
v 13.88899136 -5.82028723 -30.00000000
v 6.11100817 -5.82028723 0.00000000
v 7.32121611 -6.46715689 0.00000000
v 8.63436794 -6.86549711 0.00000000
v 10.00000000 -7.00000000 0.00000000
v 11.36563206 -6.86549711 0.00000000
v 12.67878437 -6.46715689 0.00000000
v 13.88899136 -5.82028723 0.00000000
v 3.53284335 -2.67878413 -30.00000000
v 5.05025244 -4.94974756 -30.00000000
v 4.17971277 -3.88899159 -30.00000000
v 3.13450313 -1.36563230 -30.00000000
v 3.53284335 -2.67878413 0.00000000
v 5.05025244 -4.94974756 0.00000000
v 4.17971277 -3.88899159 0.00000000
v 3.13450313 -1.36563230 0.00000000
v 17.32050896 -10.00000000 0.00000000
v 18.47759056 -7.65366888 0.00000000
v 19.31851578 -5.17638111 0.00000000
v 14.94974709 -4.94974756 -30.00000000
v 15.82028770 -3.88899159 -30.00000000
v 16.46715736 -2.67878413 -30.00000000
v 16.86549759 -1.36563230 -30.00000000
v 14.94974709 -4.94974756 0.00000000
v 15.82028770 -3.88899159 0.00000000
v 16.46715736 -2.67878413 0.00000000
v 19.82889748 -2.61052394 0.00000000
v 16.86549759 -1.36563230 0.00000000
v 2.61052394 -19.82889748 80.00000000
v 5.17638111 -19.31851578 80.00000000
v 7.65366888 -18.47759056 80.00000000
v 10.00000000 -17.32050896 80.00000000
v 12.17522812 -15.86706638 80.00000000
v 0.00000000 -14.45791912 82.00392914
v 1.23363698 -14.81532478 84.00393677
v 3.30175543 -14.49588871 84.00811005
v 2.43689775 -14.26584816 82.05701447
v 1.23485374 -13.69473743 80.00589752
v 1.23850656 -13.69114876 80.00000000
v 1.23100436 -13.69182301 80.00000000
v 3.45210290 -13.28595829 80.00000000
v 3.58015394 -13.36509800 80.20719147
v 5.37343168 -13.86456871 84.02516937
v 3.70820522 -13.21583939 80.00000000
v 5.62557840 -12.65867233 80.24579620
v 5.48614740 -12.58497906 80.00000000
v 4.51888323 -13.74366283 82.03875732
v 6.50832844 -12.94002724 82.10162354
v 5.85437918 -12.40951538 80.00000000
v 7.26662445 -12.97393990 84.03199768
v 14.14213562 -14.14213562 80.00000000
v 7.33141613 -11.58322716 80.00000000
v 8.56877518 -11.88973808 82.80465698
v 7.74182415 -11.75177574 80.80770111
v 8.47292423 -10.77994251 80.00000000
v 8.99193382 -10.36433887 80.00000000
v 9.71117878 -10.53464794 81.55992889
v 10.40670681 -10.53069687 83.59066772
v 0.00000000 -15.00000000 86.00000000
v 1.23363698 -14.81532478 87.99606323
v 2.06928372 -14.85658360 86.00000000
v 3.30175543 -14.49588871 87.99188995
v 0.00000000 -14.45791912 89.99607086
v 2.43689775 -14.26584816 89.94298553
v 1.23485374 -13.69473743 91.99410248
v 3.58015394 -13.36509800 91.79280853
v 4.09899807 -14.42907524 86.00000000
v 5.37343168 -13.86456871 87.97483063
v 6.05033016 -13.72565174 86.00000000
v 4.51888323 -13.74366283 89.96124268
v 6.50832844 -12.94002724 89.89837646
v 5.62557840 -12.65867233 91.75420380
v 0.00000000 -12.75976181 93.88596344
v 2.34651709 -12.60266781 93.78887939
v 1.21712780 -11.70306587 95.30359650
v 3.55629492 -11.37978458 95.10237885
v 0.00000000 -10.54360580 96.66922760
v 2.40933061 -10.40670681 96.53069305
v 4.63525486 -12.13525486 93.50000000
v 6.80985737 -11.36903095 93.02645111
v 5.57622051 -10.60660172 95.02251434
v 7.88596678 -12.75976181 86.00000000
v 7.26662445 -12.97393990 87.96800232
v 9.23463058 -11.75764561 84.78370667
v 9.23463058 -11.75764561 87.21629333
v 8.56877518 -11.88973808 89.19534302
v 7.74182415 -11.75177574 91.19229889
v 10.54360580 -10.66922569 86.00000000
v 10.40670681 -10.53069687 88.40933228
v 8.81677914 -10.32286453 92.37988281
v 9.71117878 -10.53464794 90.44007111
v 15.86706638 -12.17522812 80.00000000
v 19.26390266 -5.33726883 59.57624435
v 19.31180382 -5.19615221 59.15510178
v 19.31851578 -5.17638111 59.12146759
v 19.10833549 -5.79555511 60.94392395
v 19.09337044 -5.83963680 61.33927536
v 19.03893471 -6.00000000 62.77750397
v 19.05265999 -5.95956993 63.12424850
v 19.10833549 -5.79555511 64.53089142
v 19.14557457 -5.68584871 64.81525421
v 19.31180382 -5.19615221 66.08458710
v 19.31851578 -5.17638111 66.11046600
v 19.45611191 -4.48463821 58.00081635
v 19.50424957 -4.24264050 57.60877228
v 19.75142479 -3.00000000 56.36473083
v 19.82889748 -2.61052394 56.13365173
v 19.50424957 -4.24264050 67.40853882
v 19.89821625 -1.55291426 55.58765793
v 9.66280651 -9.70820427 80.00000000
v 10.42548466 -8.91106319 80.00000000
v 10.60660172 -9.02251434 80.42378235
v 10.86851215 -8.33682346 80.00000000
v 11.37978458 -9.10237694 82.44370270
v 12.60266781 -7.78887749 83.65348053
v 11.65438557 -7.20280647 80.00000000
v 12.13525486 -7.50000000 81.36474609
v 12.25094128 -6.15643597 80.00000000
v 12.49821758 -5.65478897 80.00000000
v 12.65867233 -5.75420618 80.37442017
v 13.36509800 -5.79281092 82.41984558
v 1.21629441 -9.23463058 97.75764465
v 0.00000000 -7.88596678 98.75976562
v 3.19534302 -8.56877518 97.88973999
v 4.44006872 -9.71117878 96.53464508
v 6.37988091 -8.81677914 96.32286072
v 5.19229507 -7.74182415 97.75177765
v 1.96800566 -7.26662445 98.97393799
v 0.00000000 -6.05033016 99.72565460
v 1.97483063 -5.37343168 99.86457062
v 3.89837861 -6.50832844 98.94002533
v 7.02644777 -6.80985737 97.36903381
v 5.75420618 -5.62557840 98.65866852
v 10.60660172 -9.02251434 91.57621765
v 11.70306587 -9.30359364 84.78287506
v 11.70306587 -9.30359364 87.21712494
v 11.37978458 -9.10237694 89.55629730
v 12.60266781 -7.78887749 88.34651947
v 12.75976181 -7.88596678 86.00000000
v 7.70063162 -9.69866657 94.46381378
v 8.46381283 -7.70063162 95.69866943
v 9.69866657 -8.46381283 93.70063019
v 12.13525486 -7.50000000 90.63525391
v 11.36903095 -7.02644777 92.80986023
v 13.69473743 -5.99410582 84.76514435
v 13.69473743 -5.99410582 87.23485565
v 12.65867233 -5.75420618 91.62557983
v 13.36509800 -5.79281092 89.58015442
v 10.32286453 -6.37988091 94.81678009
v 9.02251434 -5.57622051 96.60660553
v 11.75177574 -5.19229507 93.74182129
v 12.77800941 -4.96705437 80.00000000
v 13.14536667 -3.91444087 80.00000000
v 13.74366283 -3.96124125 81.48111725
v 14.26584816 -3.94298339 83.56310272
v 13.35413647 -3.03680754 80.00000000
v 13.56980610 -1.97257185 80.00000000
v 13.86456871 -1.97483063 80.62657166
v 14.49588871 -1.99188721 82.69824219
v 13.73598099 -0.14683856 80.00000000
v 0.00000000 -4.09899807 100.42907715
v 1.99188721 -3.30175543 100.49588776
v 3.96124125 -4.51888323 99.74365997
v 5.79281092 -3.58015394 99.36509705
v 0.00000000 -2.06928372 100.85658264
v 1.99606657 -1.23363698 100.81532288
v 3.94298339 -2.43689775 100.26584625
v 5.99410582 -1.23485374 99.69474030
v 14.45791912 -3.99607062 86.00000000
v 14.26584816 -3.94298339 88.43689728
v 13.74366283 -3.96124125 90.51888275
v 12.94002724 -3.89837861 92.50833130
v 10.53464794 -4.44006872 95.71118164
v 7.50000000 -4.63525486 98.13525391
v 9.10237694 -3.55629492 97.37978363
v 11.88973808 -3.19534302 94.56877136
v 14.49588871 -1.99188721 89.30175781
v 13.86456871 -1.97483063 91.37342834
v 10.53069687 -2.40933061 96.40670776
v 7.78887749 -2.34651709 98.60266876
v 9.30359364 -1.21712780 97.70306396
v 12.97393990 -1.96800566 93.26662445
v 11.75764561 -1.21629441 95.23462677
v 17.32050896 -10.00000000 80.00000000
v 18.47759056 -7.65366888 80.00000000
v 19.31851578 -5.17638111 80.00000000
v 19.75142479 -3.00000000 68.36695862
v 19.82889748 -2.61052394 68.50851440
v 19.82889748 -2.61052394 80.00000000
v 19.89821625 -1.55291426 68.97439575
v 14.81532478 -1.99606657 84.76636505
v 14.81532478 -1.99606657 87.23363495
v 53.49916840 -5.19615221 39.40240479
v 54.22311020 -5.79555511 40.65538406
v 55.00000000 -6.00000000 42.00000000
v 55.77688980 -5.79555511 43.34461594
v 56.50083160 -5.19615221 44.59759521
v 52.87750244 -4.24264050 38.32644653
v 52.40048218 -3.00000000 37.50083160
v 57.12249756 -4.24264050 45.67355347
v 57.59951782 -3.00000000 46.49916840
v 52.10061264 -1.55291426 36.98183060
v 57.89938736 -1.55291426 47.01816940
v 3.00000000 0.00000000 -30.00000000
v 3.13450313 1.36563230 -30.00000000
v 3.53284335 2.67878413 -30.00000000
v 4.17971277 3.88899159 -30.00000000
v 5.05025244 4.94974756 -30.00000000
v 10.00000000 0.00000000 -30.00000000
v 0.00000000 0.00000000 0.00000000
v 3.00000000 0.00000000 0.00000000
v 3.13450313 1.36563230 0.00000000
v 3.53284335 2.67878413 0.00000000
v 4.17971277 3.88899159 0.00000000
v 5.05025244 4.94974756 0.00000000
v 6.11100817 5.82028723 -30.00000000
v 7.32121611 6.46715689 -30.00000000
v 8.63436794 6.86549711 -30.00000000
v 10.00000000 7.00000000 -30.00000000
v 13.88899136 5.82028723 -30.00000000
v 11.36563206 6.86549711 -30.00000000
v 12.67878437 6.46715689 -30.00000000
v 6.11100817 5.82028723 0.00000000
v 7.32121611 6.46715689 0.00000000
v 8.63436794 6.86549711 0.00000000
v 10.00000000 7.00000000 0.00000000
v 13.88899136 5.82028723 0.00000000
v 11.36563206 6.86549711 0.00000000
v 12.67878437 6.46715689 0.00000000
v 17.00000000 0.00000000 -30.00000000
v 16.86549759 1.36563230 -30.00000000
v 16.46715736 2.67878413 -30.00000000
v 15.82028770 3.88899159 -30.00000000
v 14.94974709 4.94974756 -30.00000000
v 17.00000000 0.00000000 0.00000000
v 16.86549759 1.36563230 0.00000000
v 20.00000000 0.00000000 0.00000000
v 16.46715736 2.67878413 0.00000000
v 15.82028770 3.88899159 0.00000000
v 14.94974709 4.94974756 0.00000000
v 19.82889748 2.61052394 0.00000000
v 19.31851578 5.17638111 0.00000000
v 18.47759056 7.65366888 0.00000000
v 14.14213562 14.14213562 0.00000000
v 0.00000000 20.00000000 0.00000000
v 2.61052394 19.82889748 0.00000000
v 5.17638111 19.31851578 0.00000000
v 10.00000000 17.32050896 0.00000000
v 12.17522812 15.86706638 0.00000000
v 7.65366888 18.47759056 0.00000000
v 17.32050896 10.00000000 0.00000000
v 15.86706638 12.17522812 0.00000000
v 20.00000000 0.00000000 55.29273605
v 19.89821625 1.55291426 55.58765793
v 19.82889748 2.61052394 56.13365173
v 19.75142479 3.00000000 56.36473083
v 19.50424957 4.24264050 57.60877228
v 19.36100388 4.96277523 58.77541733
v 19.50424957 4.24264050 67.40853882
v 19.31851578 5.17638111 59.12146759
v 19.31180382 5.19615221 59.15510178
v 19.15397263 5.66111279 60.54270554
v 19.10833549 5.79555511 60.94392395
v 19.05314255 5.95814705 62.40214157
v 19.03893471 6.00000000 62.77750397
v 19.31851578 5.17638111 66.11046600
v 19.31180382 5.19615221 66.08458710
v 19.27607346 5.30141211 65.81174469
v 19.09527969 5.83401108 64.20107269
v 19.10833549 5.79555511 64.53089142
v 13.74379539 0.00000000 80.00000000
v 13.73598099 0.14683856 80.00000000
v 14.42907524 0.00000000 81.90100098
v 13.56980610 1.97257185 80.00000000
v 13.86456871 1.97483063 80.62657166
v 14.49588871 1.99188721 82.69824219
v 13.35413647 3.03680754 80.00000000
v 13.14536667 3.91444087 80.00000000
v 12.77800941 4.96705437 80.00000000
v 13.74366283 3.96124125 81.48111725
v 14.26584816 3.94298339 83.56310272
v 0.00000000 0.00000000 101.00000000
v 1.99606657 1.23363698 100.81532288
v 0.00000000 2.06928372 100.85658264
v 3.99607062 0.00000000 100.45791626
v 5.99410582 1.23485374 99.69474030
v 3.94298339 2.43689775 100.26584625
v 1.99188721 3.30175543 100.49588776
v 0.00000000 4.09899807 100.42907715
v 5.79281092 3.58015394 99.36509705
v 3.96124125 4.51888323 99.74365997
v 14.42907524 0.00000000 90.09899902
v 13.72565174 0.00000000 92.05033112
v 14.49588871 1.99188721 89.30175781
v 13.86456871 1.97483063 91.37342834
v 10.66922569 0.00000000 96.54360199
v 7.88596678 0.00000000 98.75976562
v 9.30359364 1.21712780 97.70306396
v 10.53069687 2.40933061 96.40670776
v 7.78887749 2.34651709 98.60266876
v 11.75764561 1.21629441 95.23462677
v 12.75976181 0.00000000 93.88596344
v 12.97393990 1.96800566 93.26662445
v 14.45791912 3.99607062 86.00000000
v 14.26584816 3.94298339 88.43689728
v 13.74366283 3.96124125 90.51888275
v 12.94002724 3.89837861 92.50833130
v 9.10237694 3.55629492 97.37978363
v 10.53464794 4.44006872 95.71118164
v 7.50000000 4.63525486 98.13525391
v 11.88973808 3.19534302 94.56877136
v 12.49821758 5.65478897 80.00000000
v 12.65867233 5.75420618 80.37442017
v 12.25094128 6.15643597 80.00000000
v 13.36509800 5.79281092 82.41984558
v 11.65438557 7.20280647 80.00000000
v 10.86851215 8.33682346 80.00000000
v 10.42548466 8.91106319 80.00000000
v 10.60660172 9.02251434 80.42378235
v 9.66280651 9.70820427 80.00000000
v 12.13525486 7.50000000 81.36474609
v 12.60266781 7.78887749 83.65348053
v 11.37978458 9.10237694 82.44370270
v 0.00000000 6.05033016 99.72565460
v 1.97483063 5.37343168 99.86457062
v 1.96800566 7.26662445 98.97393799
v 5.75420618 5.62557840 98.65866852
v 3.89837861 6.50832844 98.94002533
v 7.02644777 6.80985737 97.36903381
v 0.00000000 7.88596678 98.75976562
v 3.19534302 8.56877518 97.88973999
v 1.21629441 9.23463058 97.75764465
v 5.19229507 7.74182415 97.75177765
v 4.44006872 9.71117878 96.53464508
v 6.37988091 8.81677914 96.32286072
v 13.69473743 5.99410582 84.76514435
v 13.69473743 5.99410582 87.23485565
v 12.65867233 5.75420618 91.62557983
v 13.36509800 5.79281092 89.58015442
v 11.36903095 7.02644777 92.80986023
v 9.02251434 5.57622051 96.60660553
v 10.32286453 6.37988091 94.81678009
v 11.75177574 5.19229507 93.74182129
v 10.60660172 9.02251434 91.57621765
v 12.60266781 7.78887749 88.34651947
v 12.75976181 7.88596678 86.00000000
v 12.13525486 7.50000000 90.63525391
v 11.70306587 9.30359364 84.78287506
v 11.70306587 9.30359364 87.21712494
v 11.37978458 9.10237694 89.55629730
v 8.46381283 7.70063162 95.69866943
v 9.69866657 8.46381283 93.70063019
v 7.70063162 9.69866657 94.46381378
v 20.00000000 0.00000000 69.15171051
v 19.89821625 1.55291426 68.97439575
v 14.85658360 0.00000000 83.93071747
v 20.00000000 0.00000000 80.00000000
v 19.82889748 2.61052394 68.50851440
v 19.75142479 3.00000000 68.36695862
v 19.82889748 2.61052394 80.00000000
v 15.00000000 0.00000000 86.00000000
v 14.85658360 0.00000000 88.06928253
v 14.81532478 1.99606657 84.76636505
v 14.81532478 1.99606657 87.23363495
v 19.31851578 5.17638111 80.00000000
v 18.47759056 7.65366888 80.00000000
v 5.85437918 12.40951538 80.00000000
v 1.23485374 13.69473743 80.00589752
v 1.23100436 13.69182301 80.00000000
v 1.23850656 13.69114876 80.00000000
v 3.45210290 13.28595829 80.00000000
v 3.58015394 13.36509800 80.20719147
v 0.00000000 14.45791912 82.00392914
v 1.23363698 14.81532478 84.00393677
v 2.43689775 14.26584816 82.05701447
v 3.30175543 14.49588871 84.00811005
v 3.70820522 13.21583939 80.00000000
v 5.48614740 12.58497906 80.00000000
v 5.62557840 12.65867233 80.24579620
v 4.51888323 13.74366283 82.03875732
v 6.50832844 12.94002724 82.10162354
v 5.37343168 13.86456871 84.02516937
v 8.99193382 10.36433887 80.00000000
v 8.47292423 10.77994251 80.00000000
v 9.71117878 10.53464794 81.55992889
v 10.40670681 10.53069687 83.59066772
v 7.33141613 11.58322716 80.00000000
v 7.74182415 11.75177574 80.80770111
v 8.56877518 11.88973808 82.80465698
v 7.26662445 12.97393990 84.03199768
v 14.14213562 14.14213562 80.00000000
v 0.00000000 10.54360580 96.66922760
v 2.40933061 10.40670681 96.53069305
v 1.21712780 11.70306587 95.30359650
v 3.55629492 11.37978458 95.10237885
v 5.57622051 10.60660172 95.02251434
v 4.63525486 12.13525486 93.50000000
v 6.80985737 11.36903095 93.02645111
v 1.23485374 13.69473743 91.99410248
v 3.58015394 13.36509800 91.79280853
v 1.23363698 14.81532478 87.99606323
v 2.06928372 14.85658360 86.00000000
v 3.30175543 14.49588871 87.99188995
v 0.00000000 14.45791912 89.99607086
v 2.43689775 14.26584816 89.94298553
v 6.05033016 13.72565174 86.00000000
v 4.51888323 13.74366283 89.96124268
v 6.50832844 12.94002724 89.89837646
v 5.62557840 12.65867233 91.75420380
v 5.37343168 13.86456871 87.97483063
v 4.09899807 14.42907524 86.00000000
v 0.00000000 12.75976181 93.88596344
v 2.34651709 12.60266781 93.78887939
v 10.40670681 10.53069687 88.40933228
v 10.54360580 10.66922569 86.00000000
v 8.81677914 10.32286453 92.37988281
v 9.71117878 10.53464794 90.44007111
v 9.23463058 11.75764561 84.78370667
v 9.23463058 11.75764561 87.21629333
v 7.74182415 11.75177574 91.19229889
v 8.56877518 11.88973808 89.19534302
v 7.88596678 12.75976181 86.00000000
v 7.26662445 12.97393990 87.96800232
v 0.00000000 20.00000000 80.00000000
v 2.61052394 19.82889748 80.00000000
v 5.17638111 19.31851578 80.00000000
v 10.00000000 17.32050896 80.00000000
v 12.17522812 15.86706638 80.00000000
v 7.65366888 18.47759056 80.00000000
v 0.00000000 15.00000000 86.00000000
v 17.32050896 10.00000000 80.00000000
v 15.86706638 12.17522812 80.00000000
v 51.99833298 0.00000000 36.80480957
v 52.10061264 1.55291426 36.98183060
v 55.00000000 0.00000000 42.00000000
v 58.00166702 0.00000000 47.19519043
v 57.89938736 1.55291426 47.01816940
v 52.40048218 3.00000000 37.50083160
v 52.87750244 4.24264050 38.32644653
v 57.59951782 3.00000000 46.49916840
v 57.12249756 4.24264050 45.67355347
v 53.49916840 5.19615221 39.40240479
v 54.22311020 5.79555511 40.65538406
v 55.00000000 6.00000000 42.00000000
v 55.77688980 5.79555511 43.34461594
v 56.50083160 5.19615221 44.59759521
f 1 31 8
f 3 662 4
f 3 8 662
f 2 662 5
f 5 662 6
f 6 662 7
f 2 4 662
f 1 8 54
f 1 132 10
f 2 57 4
f 3 4 56
f 2 5 55
f 5 6 58
f 6 7 59
f 3 61 8
f 1 10 28
f 9 17 10
f 10 30 28
f 10 17 30
f 9 11 18
f 9 18 17
f 11 16 19
f 11 19 18
f 16 215 20
f 16 20 19
f 215 216 20
f 8 31 32
f 1 28 29
f 1 29 31
f 8 32 33
f 8 33 34
f 8 34 39
f 8 39 662
f 662 39 40
f 662 40 41
f 662 41 42
f 662 42 230
f 9 10 131
f 9 115 11
f 11 128 16
f 16 271 215
f 8 61 54
f 1 54 132
f 2 55 57
f 3 56 61
f 4 57 56
f 5 58 55
f 6 59 58
f 7 60 59
f 55 84 57
f 59 60 83
f 55 58 73
f 58 59 79
f 58 79 73
f 59 82 79
f 59 83 82
f 56 67 61
f 56 57 63
f 57 84 63
f 56 63 66
f 54 61 143
f 61 67 142
f 61 142 143
f 56 66 67
f 55 73 72
f 55 72 84
f 9 116 117
f 9 118 116
f 9 119 118
f 9 114 115
f 11 115 125
f 9 117 114
f 9 131 119
f 10 132 131
f 11 125 126
f 11 126 127
f 11 127 128
f 16 128 130
f 16 130 271
f 54 146 132
f 131 132 148
f 131 120 119
f 131 121 120
f 131 122 121
f 133 123 122
f 133 124 123
f 131 133 122
f 131 181 133
f 131 149 180
f 131 180 181
f 133 129 124
f 133 134 129
f 133 135 134
f 133 136 135
f 133 181 184
f 133 184 136
f 136 184 185
f 136 137 135
f 136 289 137
f 136 291 289
f 136 185 188
f 136 188 291
f 291 188 302
f 54 145 146
f 54 143 145
f 132 146 148
f 131 148 149
f 215 218 217
f 215 217 216
f 218 219 217
f 218 222 219
f 222 220 219
f 222 221 220
f 222 223 221
f 223 242 221
f 249 243 242
f 223 249 242
f 249 250 244
f 662 230 231
f 662 231 234
f 662 234 232
f 662 232 233
f 249 244 243
f 250 245 244
f 250 246 245
f 251 233 248
f 251 247 246
f 251 248 247
f 251 662 233
f 215 272 218
f 218 275 222
f 222 301 223
f 223 380 249
f 250 251 246
f 251 252 662
f 252 253 662
f 253 254 662
f 254 255 662
f 255 256 662
f 256 697 662
f 249 381 250
f 250 389 251
f 251 435 252
f 252 436 253
f 253 437 254
f 254 438 255
f 255 439 256
f 256 876 697
f 215 271 272
f 218 272 273
f 218 273 274
f 218 274 275
f 222 275 276
f 222 276 278
f 222 278 279
f 222 279 280
f 222 280 281
f 222 281 282
f 222 282 283
f 222 283 301
f 223 301 380
f 291 295 289
f 295 290 289
f 295 293 290
f 291 303 295
f 291 302 303
f 295 303 305
f 300 294 293
f 295 300 293
f 300 277 294
f 300 285 277
f 295 308 300
f 295 305 308
f 300 308 309
f 301 286 285
f 301 287 286
f 300 301 285
f 301 283 284
f 301 284 288
f 301 288 287
f 300 309 301
f 301 309 310
f 301 310 340
f 301 342 380
f 380 344 381
f 301 340 342
f 380 342 344
f 381 344 348
f 381 348 349
f 249 380 381
f 250 381 389
f 251 389 435
f 252 435 436
f 253 436 437
f 254 437 438
f 255 438 439
f 256 439 876
f 389 349 351
f 381 349 389
f 389 351 382
f 435 382 383
f 389 382 435
f 435 383 386
f 435 386 436
f 436 386 391
f 437 391 392
f 437 392 394
f 436 391 437
f 438 394 398
f 437 394 438
f 438 398 439
f 439 398 401
f 439 401 402
f 439 402 876
f 7 662 440
f 440 662 441
f 441 662 442
f 442 662 443
f 443 662 444
f 444 662 445
f 445 456 446
f 7 440 60
f 440 441 481
f 441 442 482
f 442 443 483
f 443 444 484
f 444 445 485
f 445 446 503
f 446 469 544
f 445 662 466
f 445 454 455
f 445 455 456
f 445 466 454
f 446 456 457
f 446 457 458
f 469 458 459
f 662 467 466
f 662 465 467
f 662 468 465
f 662 663 468
f 446 458 469
f 469 460 470
f 469 459 460
f 470 460 476
f 470 476 471
f 471 476 477
f 471 477 478
f 471 478 479
f 479 478 480
f 689 480 687
f 479 480 689
f 469 470 636
f 470 471 637
f 479 689 561
f 471 479 557
f 60 440 481
f 441 482 481
f 442 483 482
f 443 484 483
f 444 485 484
f 445 503 485
f 446 544 503
f 469 636 544
f 60 481 492
f 60 492 83
f 481 491 492
f 481 493 491
f 481 482 493
f 482 483 496
f 482 496 493
f 483 484 501
f 483 498 496
f 483 501 498
f 484 504 501
f 484 485 504
f 485 507 504
f 485 503 508
f 485 508 507
f 503 562 508
f 503 544 563
f 503 563 562
f 471 546 545
f 471 547 546
f 471 549 550
f 471 545 548
f 471 548 549
f 471 550 637
f 470 637 636
f 471 556 547
f 471 557 556
f 479 558 557
f 479 559 558
f 479 561 559
f 689 705 561
f 544 565 563
f 544 568 565
f 636 570 568
f 637 571 570
f 544 636 568
f 636 637 570
f 637 550 551
f 637 551 552
f 637 552 553
f 637 553 554
f 637 554 555
f 637 555 638
f 637 604 571
f 637 605 604
f 637 638 605
f 638 555 560
f 638 560 639
f 638 639 640
f 638 640 641
f 638 608 605
f 641 609 608
f 638 641 608
f 641 640 642
f 641 642 806
f 641 806 809
f 641 612 609
f 809 723 612
f 641 809 612
f 662 664 663
f 662 665 664
f 662 666 665
f 662 667 666
f 662 696 667
f 696 675 667
f 696 676 675
f 696 677 676
f 704 680 678
f 704 681 680
f 696 678 677
f 689 687 688
f 693 688 690
f 689 688 693
f 694 690 691
f 693 690 694
f 695 691 692
f 694 691 695
f 703 692 679
f 703 679 681
f 695 692 703
f 704 703 681
f 689 693 705
f 693 694 707
f 694 695 712
f 695 703 818
f 662 702 700
f 662 697 698
f 662 698 699
f 662 699 702
f 662 701 696
f 662 700 701
f 696 704 678
f 696 701 843
f 697 877 698
f 698 878 699
f 699 881 702
f 700 880 701
f 702 879 700
f 704 883 703
f 696 884 704
f 693 706 705
f 693 707 706
f 694 708 707
f 694 709 708
f 694 710 709
f 694 712 710
f 695 713 712
f 695 714 713
f 695 715 714
f 695 716 715
f 695 717 716
f 695 818 717
f 703 883 818
f 818 766 764
f 883 768 766
f 884 770 769
f 884 769 768
f 809 806 812
f 812 806 807
f 812 807 810
f 809 724 723
f 809 812 724
f 812 726 724
f 817 810 811
f 812 810 817
f 817 811 711
f 817 711 718
f 812 729 726
f 812 817 729
f 817 730 729
f 817 718 719
f 817 719 720
f 817 720 818
f 818 721 717
f 818 720 722
f 818 722 721
f 818 731 730
f 818 764 731
f 817 818 730
f 818 883 766
f 884 768 883
f 697 876 877
f 698 877 878
f 699 878 881
f 700 879 880
f 701 880 843
f 702 881 879
f 704 884 883
f 696 843 884
f 881 830 819
f 881 829 830
f 880 836 835
f 843 772 770
f 843 835 772
f 843 770 884
f 880 839 836
f 879 819 839
f 879 839 880
f 843 880 835
f 876 402 821
f 877 821 822
f 877 822 823
f 878 823 829
f 877 823 878
f 878 829 881
f 876 821 877
f 881 819 879
f 62 64 74
f 65 66 63
f 64 87 69
f 65 74 64
f 62 87 64
f 65 64 68
f 68 142 67
f 68 67 66
f 64 69 68
f 68 69 140
f 65 68 66
f 75 76 70
f 71 84 72
f 80 71 72
f 80 72 73
f 62 74 70
f 75 70 74
f 75 74 71
f 75 71 80
f 77 78 76
f 75 80 77
f 77 80 81
f 75 77 76
f 77 486 78
f 77 81 486
f 80 79 82
f 80 73 79
f 80 82 81
f 81 82 83
f 81 83 492
f 65 84 71
f 65 63 84
f 65 71 74
f 86 98 89
f 69 91 152
f 91 92 153
f 87 88 91
f 88 89 92
f 85 88 87
f 62 85 87
f 86 89 88
f 85 86 88
f 89 98 90
f 89 90 93
f 87 91 69
f 88 92 91
f 89 93 92
f 92 93 154
f 90 94 93
f 90 108 94
f 108 158 94
f 70 95 97
f 95 96 97
f 70 76 95
f 95 102 96
f 96 102 100
f 62 97 85
f 85 97 86
f 62 70 97
f 86 96 98
f 86 97 96
f 96 100 98
f 100 99 98
f 100 105 99
f 105 109 99
f 76 101 95
f 95 101 102
f 76 78 101
f 101 103 102
f 102 103 104
f 78 511 101
f 101 511 103
f 100 102 104
f 100 104 105
f 104 106 105
f 103 515 104
f 104 515 106
f 105 106 107
f 105 107 109
f 106 525 107
f 90 98 99
f 90 99 108
f 99 109 108
f 108 109 110
f 109 111 110
f 108 110 158
f 111 171 110
f 109 107 111
f 107 112 111
f 107 525 112
f 111 112 113
f 111 113 171
f 112 529 113
f 113 529 173
f 138 187 183
f 138 292 187
f 187 292 304
f 138 183 189
f 139 189 190
f 138 189 139
f 139 190 197
f 138 139 296
f 139 197 297
f 138 296 292
f 139 297 296
f 197 313 297
f 69 152 140
f 147 146 145
f 140 141 147
f 140 147 144
f 144 147 145
f 140 152 141
f 144 143 142
f 144 145 143
f 68 144 142
f 68 140 144
f 147 148 146
f 141 151 147
f 147 151 150
f 141 163 151
f 147 150 148
f 150 149 148
f 150 180 149
f 150 151 182
f 151 163 183
f 91 153 152
f 92 154 153
f 152 153 155
f 141 152 155
f 153 154 156
f 153 156 155
f 154 161 156
f 154 157 161
f 157 162 161
f 93 157 154
f 93 94 157
f 94 159 157
f 157 159 162
f 94 158 159
f 159 160 168
f 158 160 159
f 158 170 160
f 160 170 175
f 141 155 163
f 155 156 164
f 155 164 163
f 156 165 164
f 156 161 165
f 161 166 165
f 161 162 166
f 163 164 189
f 164 165 190
f 165 166 191
f 162 167 166
f 162 168 167
f 159 168 162
f 160 169 168
f 160 175 169
f 168 194 167
f 168 169 194
f 169 175 195
f 158 110 170
f 110 171 170
f 171 172 170
f 170 172 175
f 171 174 172
f 172 174 176
f 171 113 174
f 113 173 174
f 174 173 178
f 173 575 178
f 172 177 175
f 172 176 177
f 195 175 177
f 177 176 204
f 174 178 176
f 176 178 179
f 178 575 581
f 176 179 204
f 178 581 179
f 179 581 613
f 150 181 180
f 151 183 182
f 150 182 181
f 182 184 181
f 182 183 187
f 182 186 184
f 182 187 186
f 186 185 184
f 186 188 185
f 186 187 304
f 186 304 188
f 304 302 188
f 183 163 189
f 164 190 189
f 165 191 190
f 166 192 191
f 166 167 192
f 190 191 197
f 191 192 198
f 191 198 197
f 192 199 198
f 192 167 193
f 167 194 193
f 194 201 193
f 192 193 199
f 169 196 194
f 169 195 196
f 194 196 201
f 195 202 196
f 197 198 313
f 198 199 314
f 198 314 313
f 193 200 199
f 193 201 200
f 199 317 314
f 199 200 317
f 201 320 200
f 196 203 201
f 196 202 203
f 201 203 320
f 202 322 203
f 195 177 205
f 177 204 205
f 195 205 202
f 204 207 205
f 204 179 206
f 179 613 206
f 204 206 207
f 206 613 617
f 202 205 208
f 205 207 208
f 202 208 322
f 207 334 208
f 207 206 209
f 206 617 209
f 207 209 334
f 209 617 734
f 292 307 304
f 292 298 307
f 298 312 307
f 292 296 298
f 296 297 299
f 297 313 315
f 296 299 298
f 297 315 299
f 298 299 325
f 299 315 326
f 298 325 312
f 299 326 325
f 304 303 302
f 304 306 303
f 306 305 303
f 306 308 305
f 304 307 306
f 311 309 308
f 306 307 311
f 306 311 308
f 307 312 311
f 341 310 309
f 311 312 343
f 311 341 309
f 313 314 316
f 313 316 315
f 314 319 316
f 314 317 319
f 200 318 317
f 200 320 318
f 317 318 319
f 318 320 323
f 318 329 319
f 318 323 329
f 320 321 323
f 203 321 320
f 203 322 321
f 322 324 321
f 321 330 323
f 321 324 330
f 315 316 327
f 316 319 328
f 315 327 326
f 316 328 327
f 312 325 352
f 325 326 353
f 326 327 354
f 327 328 355
f 328 357 355
f 319 329 328
f 329 323 331
f 329 357 328
f 329 331 357
f 323 330 331
f 324 332 330
f 330 358 331
f 330 332 358
f 208 333 322
f 322 333 324
f 208 334 333
f 334 335 333
f 324 333 337
f 333 335 337
f 209 336 334
f 334 336 335
f 209 734 336
f 336 734 736
f 336 339 335
f 336 736 339
f 324 337 332
f 335 338 337
f 337 370 332
f 337 338 370
f 335 339 338
f 339 736 741
f 339 373 338
f 339 741 373
f 341 340 310
f 341 342 340
f 311 343 341
f 312 352 343
f 345 344 342
f 341 343 345
f 343 352 346
f 343 346 345
f 341 345 342
f 345 348 344
f 345 346 347
f 345 350 348
f 345 347 350
f 346 363 347
f 347 363 385
f 350 349 348
f 350 351 349
f 347 384 350
f 350 384 351
f 325 353 352
f 326 354 353
f 327 355 354
f 357 356 355
f 352 353 360
f 353 354 361
f 352 360 346
f 353 361 360
f 354 355 362
f 354 362 361
f 355 356 362
f 357 359 356
f 357 331 359
f 331 358 359
f 332 371 358
f 358 368 359
f 356 359 367
f 358 371 368
f 346 360 363
f 360 361 364
f 361 365 364
f 356 366 362
f 361 362 365
f 362 366 365
f 360 364 363
f 363 364 407
f 364 365 406
f 356 367 366
f 366 367 409
f 365 366 408
f 366 409 408
f 359 368 367
f 371 376 368
f 368 369 367
f 368 376 369
f 367 369 409
f 332 370 371
f 338 372 370
f 370 375 371
f 370 372 375
f 338 373 372
f 373 741 776
f 373 776 374
f 373 374 372
f 372 374 378
f 374 776 782
f 371 375 376
f 372 378 375
f 375 378 377
f 369 376 416
f 376 377 416
f 375 377 376
f 374 379 378
f 374 782 379
f 378 419 377
f 378 379 419
f 384 382 351
f 384 383 382
f 347 385 384
f 384 385 388
f 384 387 383
f 387 386 383
f 385 410 388
f 384 388 387
f 387 388 395
f 388 410 390
f 388 390 395
f 387 393 386
f 393 391 386
f 387 395 393
f 393 392 391
f 393 399 392
f 399 394 392
f 393 395 396
f 390 397 395
f 395 397 396
f 393 396 399
f 396 397 404
f 399 398 394
f 399 400 398
f 400 401 398
f 400 402 401
f 400 820 402
f 396 403 399
f 399 403 400
f 396 404 403
f 403 404 405
f 400 403 825
f 403 405 825
f 385 363 407
f 364 406 407
f 385 407 410
f 407 406 411
f 365 408 406
f 406 408 413
f 408 409 412
f 409 417 412
f 407 411 410
f 406 413 411
f 410 411 414
f 390 410 414
f 411 413 415
f 411 415 414
f 408 412 413
f 413 412 423
f 409 369 417
f 413 423 415
f 412 417 424
f 412 424 423
f 424 417 418
f 369 416 417
f 377 420 416
f 416 418 417
f 416 420 418
f 377 419 420
f 419 421 420
f 419 844 421
f 379 844 419
f 418 420 434
f 420 421 434
f 421 864 434
f 390 414 422
f 414 415 422
f 390 422 397
f 415 423 426
f 415 426 422
f 423 424 425
f 423 425 426
f 424 418 428
f 424 428 425
f 397 422 427
f 422 426 427
f 397 427 404
f 426 425 431
f 426 431 427
f 434 429 428
f 404 427 430
f 427 431 430
f 404 430 405
f 431 433 432
f 431 432 430
f 405 430 882
f 430 432 882
f 425 428 433
f 425 433 431
f 428 429 433
f 429 856 433
f 432 433 856
f 418 434 428
f 434 864 429
f 78 486 487
f 487 486 489
f 81 490 486
f 486 490 489
f 487 489 488
f 489 490 494
f 489 494 499
f 489 499 488
f 81 492 490
f 490 492 491
f 490 491 493
f 490 493 494
f 494 493 496
f 488 499 495
f 494 496 498
f 494 498 497
f 497 498 501
f 494 497 499
f 499 500 495
f 495 500 502
f 499 497 500
f 497 501 504
f 497 504 506
f 497 506 500
f 500 505 502
f 506 504 507
f 500 506 505
f 502 505 536
f 506 509 505
f 505 510 536
f 509 507 508
f 509 508 562
f 506 507 509
f 505 509 510
f 509 566 510
f 78 487 511
f 487 513 511
f 511 513 512
f 103 511 512
f 103 512 515
f 487 488 513
f 488 519 513
f 513 519 514
f 512 513 514
f 512 514 516
f 512 516 515
f 515 516 517
f 106 515 517
f 514 522 516
f 516 522 518
f 516 518 517
f 106 517 525
f 517 518 526
f 488 495 519
f 495 521 519
f 519 521 520
f 514 519 520
f 514 520 522
f 495 502 521
f 502 534 521
f 521 534 535
f 520 521 535
f 520 535 523
f 518 522 524
f 518 524 531
f 520 523 522
f 522 523 524
f 517 526 525
f 518 531 526
f 524 532 531
f 523 539 524
f 524 539 532
f 112 525 527
f 525 526 527
f 112 527 529
f 526 528 527
f 526 531 528
f 527 530 529
f 527 528 530
f 528 577 530
f 529 530 574
f 528 531 533
f 531 532 533
f 528 533 577
f 532 592 533
f 523 535 538
f 502 536 534
f 534 536 537
f 534 537 535
f 535 537 538
f 536 540 537
f 537 541 538
f 523 538 539
f 538 543 539
f 536 510 540
f 537 540 541
f 532 539 542
f 539 543 542
f 538 541 543
f 541 589 543
f 510 587 540
f 540 588 541
f 532 542 592
f 564 562 563
f 564 563 565
f 509 562 564
f 509 564 566
f 510 566 587
f 569 565 568
f 564 569 566
f 564 565 569
f 566 569 567
f 566 567 587
f 569 568 570
f 569 570 572
f 567 569 573
f 569 572 573
f 567 573 597
f 572 570 571
f 572 571 604
f 572 606 573
f 573 607 597
f 173 529 574
f 173 574 575
f 530 576 574
f 530 577 576
f 574 580 575
f 574 576 580
f 577 578 579
f 533 578 577
f 533 592 578
f 577 579 576
f 576 579 583
f 578 584 579
f 575 580 581
f 576 583 580
f 580 583 582
f 580 582 581
f 581 582 613
f 583 615 582
f 579 585 583
f 579 584 585
f 583 585 615
f 584 626 585
f 543 589 586
f 542 543 586
f 542 586 594
f 586 596 594
f 540 587 588
f 541 588 589
f 587 591 588
f 567 591 587
f 588 590 589
f 588 591 590
f 586 589 595
f 589 590 595
f 586 595 596
f 542 594 592
f 592 594 593
f 578 592 593
f 578 593 584
f 594 601 593
f 567 597 591
f 590 591 598
f 591 597 598
f 590 598 600
f 595 599 596
f 590 600 595
f 595 600 599
f 597 621 598
f 598 622 600
f 596 599 603
f 599 600 623
f 593 602 584
f 594 596 601
f 593 601 602
f 601 603 625
f 601 625 602
f 584 602 626
f 596 603 601
f 572 604 605
f 572 605 606
f 573 606 607
f 606 605 608
f 606 611 607
f 606 608 610
f 606 610 611
f 610 608 609
f 610 609 612
f 610 725 611
f 610 612 725
f 725 612 723
f 582 614 613
f 582 615 614
f 613 614 617
f 615 619 614
f 585 616 615
f 585 626 616
f 615 616 619
f 626 632 616
f 614 618 617
f 614 619 618
f 617 618 734
f 619 737 618
f 616 620 619
f 616 632 620
f 619 620 737
f 620 632 749
f 607 621 597
f 598 621 622
f 599 624 603
f 600 622 623
f 599 623 624
f 622 629 623
f 623 630 624
f 623 629 630
f 624 630 634
f 602 625 627
f 602 627 626
f 625 631 627
f 626 627 632
f 625 603 628
f 624 628 603
f 625 628 631
f 624 634 628
f 629 744 630
f 630 745 634
f 630 744 745
f 627 633 632
f 627 631 633
f 631 748 633
f 632 633 749
f 628 634 635
f 631 628 635
f 634 754 635
f 631 635 748
f 634 745 754
f 607 611 643
f 611 808 643
f 611 725 808
f 607 643 621
f 621 644 622
f 621 643 644
f 622 644 629
f 643 813 644
f 629 644 814
f 643 808 813
f 644 813 814
f 629 814 744
f 725 723 724
f 725 724 727
f 727 724 726
f 727 726 729
f 725 727 728
f 732 729 730
f 727 732 728
f 727 729 732
f 728 732 733
f 765 730 731
f 732 730 765
f 732 767 733
f 618 735 734
f 734 735 736
f 618 737 735
f 735 737 739
f 735 740 736
f 735 739 740
f 620 738 737
f 737 738 739
f 620 749 738
f 738 749 752
f 738 742 739
f 738 752 742
f 736 740 741
f 740 739 743
f 740 777 741
f 740 743 777
f 739 742 743
f 742 752 762
f 742 779 743
f 742 762 779
f 744 747 745
f 744 746 747
f 745 747 755
f 748 751 750
f 633 750 749
f 749 750 752
f 633 748 750
f 750 760 752
f 750 751 760
f 635 754 753
f 635 753 748
f 754 755 753
f 748 753 751
f 745 755 754
f 753 755 763
f 753 763 751
f 746 758 747
f 747 759 755
f 746 757 758
f 747 758 759
f 733 788 756
f 756 789 757
f 759 790 795
f 757 791 758
f 758 790 759
f 751 761 760
f 752 760 762
f 760 761 793
f 760 793 762
f 755 759 763
f 751 763 761
f 763 795 761
f 763 759 795
f 765 731 764
f 765 764 766
f 732 765 767
f 733 767 788
f 773 766 768
f 765 766 773
f 765 773 767
f 767 774 788
f 767 773 774
f 771 769 770
f 771 770 772
f 771 837 775
f 771 772 837
f 773 768 769
f 771 773 769
f 771 775 773
f 773 775 774
f 774 775 800
f 775 838 800
f 741 777 776
f 777 778 776
f 777 743 780
f 776 778 782
f 777 780 778
f 778 780 783
f 743 779 780
f 779 762 781
f 780 779 785
f 779 781 785
f 778 784 782
f 778 783 784
f 379 782 784
f 379 784 844
f 784 783 845
f 783 786 845
f 780 785 783
f 783 785 786
f 781 787 785
f 785 787 786
f 787 848 786
f 787 805 848
f 756 788 789
f 757 789 791
f 795 790 792
f 758 791 790
f 788 798 789
f 789 797 791
f 788 774 798
f 789 798 797
f 790 799 792
f 790 791 799
f 791 797 799
f 761 795 794
f 761 794 793
f 781 762 793
f 781 793 803
f 793 794 803
f 792 804 794
f 795 792 794
f 792 796 804
f 796 868 804
f 796 802 869
f 796 869 868
f 774 800 798
f 797 798 801
f 797 801 802
f 792 799 796
f 796 799 802
f 797 802 799
f 798 800 801
f 800 867 801
f 801 866 802
f 781 803 787
f 803 804 805
f 787 803 805
f 794 804 803
f 804 868 805
f 725 728 808
f 728 815 808
f 728 733 815
f 808 815 813
f 813 816 814
f 744 814 746
f 813 815 816
f 746 814 816
f 756 816 815
f 746 816 757
f 733 756 815
f 756 757 816
f 840 839 819
f 831 840 819
f 831 833 840
f 820 821 402
f 820 822 821
f 820 824 822
f 824 829 823
f 824 823 822
f 400 825 820
f 820 825 827
f 405 826 825
f 825 826 827
f 820 827 824
f 824 827 832
f 827 828 832
f 826 828 827
f 824 830 829
f 831 830 824
f 831 819 830
f 831 824 832
f 831 832 833
f 833 832 834
f 833 834 842
f 828 834 832
f 837 835 836
f 837 772 835
f 837 836 840
f 775 837 838
f 837 841 838
f 840 836 839
f 837 840 841
f 833 841 840
f 841 842 870
f 838 841 870
f 833 842 841
f 861 849 850
f 861 850 872
f 860 861 872
f 844 845 846
f 845 786 847
f 845 847 846
f 784 845 844
f 421 844 846
f 421 846 864
f 846 865 864
f 846 847 865
f 847 849 865
f 786 848 847
f 848 805 850
f 848 849 847
f 848 850 849
f 429 864 851
f 865 852 851
f 405 882 826
f 826 882 854
f 882 853 854
f 432 853 882
f 432 856 853
f 826 854 828
f 828 854 863
f 855 863 854
f 853 857 855
f 853 855 854
f 851 857 856
f 429 851 856
f 853 856 857
f 852 859 857
f 855 857 859
f 851 852 857
f 834 858 842
f 842 858 874
f 858 875 874
f 862 875 858
f 860 875 862
f 861 852 849
f 861 859 852
f 860 859 861
f 860 862 859
f 828 863 834
f 834 863 858
f 862 858 863
f 855 859 862
f 855 862 863
f 864 865 851
f 865 849 852
f 838 870 867
f 867 871 866
f 868 872 850
f 868 869 872
f 802 866 869
f 866 873 869
f 842 874 870
f 870 874 871
f 871 874 875
f 871 875 873
f 867 870 871
f 866 871 873
f 869 873 872
f 860 872 873
f 838 867 800
f 801 867 866
f 868 850 805
f 860 873 875
f 12 23 17
f 12 18 13
f 13 19 14
f 15 210 224
f 14 20 15
f 15 216 210
f 12 17 18
f 13 18 19
f 14 19 20
f 15 20 216
f 22 24 29
f 22 28 21
f 23 21 30
f 24 25 31
f 25 26 32
f 26 27 33
f 27 35 34
f 21 28 30
f 22 29 28
f 23 30 17
f 24 31 29
f 25 32 31
f 26 33 32
f 27 34 33
f 35 39 34
f 22 21 224
f 23 224 21
f 12 224 23
f 12 13 224
f 22 224 24
f 24 224 25
f 25 224 26
f 26 224 27
f 13 14 224
f 14 15 224
f 27 224 35
f 35 224 36
f 35 36 39
f 36 37 40
f 36 224 37
f 37 224 38
f 38 224 225
f 37 38 41
f 38 225 42
f 36 40 39
f 37 41 40
f 38 42 41
f 225 230 42
f 210 211 224
f 210 217 211
f 211 219 212
f 212 220 213
f 213 221 214
f 210 216 217
f 211 217 219
f 212 219 220
f 213 220 221
f 214 221 242
f 211 212 224
f 212 213 224
f 213 214 224
f 214 235 224
f 224 235 236
f 224 236 237
f 224 237 238
f 224 238 239
f 224 240 241
f 224 239 240
f 224 226 225
f 224 229 226
f 224 227 229
f 225 226 230
f 226 229 231
f 224 228 227
f 224 241 228
f 229 227 234
f 227 228 232
f 226 231 230
f 229 234 231
f 227 232 234
f 228 233 232
f 214 242 235
f 235 243 236
f 236 244 237
f 237 245 238
f 238 246 239
f 240 239 247
f 240 248 241
f 228 241 233
f 235 242 243
f 236 243 244
f 237 244 245
f 238 245 246
f 239 246 247
f 241 248 233
f 240 247 248
f 447 466 462
f 447 448 454
f 449 455 448
f 449 450 456
f 450 451 457
f 451 452 458
f 452 453 459
f 453 472 460
f 448 455 454
f 447 454 466
f 449 456 455
f 450 457 456
f 451 458 457
f 452 459 458
f 453 460 459
f 447 462 661
f 462 463 661
f 462 467 463
f 463 465 461
f 463 461 661
f 461 464 661
f 464 656 661
f 461 468 464
f 464 663 656
f 449 448 661
f 447 661 448
f 449 661 450
f 450 661 451
f 451 661 452
f 452 661 453
f 453 661 472
f 472 661 473
f 473 661 474
f 474 661 475
f 462 466 467
f 463 467 465
f 461 465 468
f 464 468 663
f 472 476 460
f 472 473 476
f 473 474 477
f 475 661 682
f 474 475 478
f 475 682 480
f 473 477 476
f 474 478 477
f 475 480 478
f 682 687 480
f 656 657 661
f 657 658 661
f 658 659 661
f 656 664 657
f 657 665 658
f 661 659 660
f 661 660 668
f 658 666 659
f 659 667 660
f 661 684 683
f 661 685 684
f 661 668 669
f 661 669 670
f 661 670 671
f 661 671 673
f 661 686 685
f 661 672 686
f 661 674 672
f 661 673 674
f 656 663 664
f 657 664 665
f 658 665 666
f 659 666 667
f 660 675 668
f 668 676 669
f 669 677 670
f 670 678 671
f 674 679 672
f 674 673 681
f 671 680 673
f 660 667 675
f 668 675 676
f 669 676 677
f 670 677 678
f 671 678 680
f 672 679 692
f 673 680 681
f 674 681 679
f 661 683 682
f 682 683 687
f 683 684 688
f 684 685 690
f 685 686 691
f 683 688 687
f 684 690 688
f 685 691 690
f 686 692 691
f 672 692 686
f 43 122 47
f 44 257 46
f 43 257 44
f 43 47 257
f 46 257 45
f 45 257 48
f 47 50 257
f 48 257 49
f 49 257 52
f 52 257 258
f 50 51 257
f 51 53 257
f 53 260 257
f 47 129 50
f 50 134 51
f 51 137 53
f 53 289 260
f 46 45 117
f 44 46 118
f 43 44 120
f 44 118 119
f 46 117 116
f 46 116 118
f 45 114 117
f 45 115 114
f 45 125 115
f 44 119 120
f 43 120 121
f 43 121 122
f 47 122 123
f 47 123 124
f 49 52 127
f 45 48 125
f 48 49 126
f 52 258 130
f 48 126 125
f 49 127 126
f 52 128 127
f 52 130 128
f 258 271 130
f 47 124 129
f 50 129 134
f 51 134 135
f 51 135 137
f 53 137 289
f 257 259 258
f 257 262 259
f 257 263 262
f 257 260 261
f 257 261 264
f 257 264 265
f 257 270 266
f 257 267 269
f 257 266 267
f 257 268 263
f 257 269 268
f 257 265 270
f 260 290 261
f 261 294 264
f 264 277 265
f 265 286 270
f 270 288 266
f 258 259 271
f 259 262 272
f 262 263 274
f 263 268 275
f 259 272 271
f 262 273 272
f 262 274 273
f 268 276 275
f 263 275 274
f 260 289 290
f 261 290 293
f 261 293 294
f 268 278 276
f 265 277 285
f 265 285 286
f 264 294 277
f 268 269 279
f 267 281 269
f 266 283 267
f 269 280 279
f 269 281 280
f 267 282 281
f 267 283 282
f 268 279 278
f 270 287 288
f 270 286 287
f 266 284 283
f 266 288 284
f 646 546 645
f 646 647 548
f 647 648 550
f 645 546 547
f 646 548 545
f 647 550 549
f 647 549 548
f 646 545 546
f 648 551 550
f 648 552 551
f 649 553 552
f 649 554 553
f 650 557 558
f 645 556 557
f 651 558 559
f 651 559 561
f 654 561 705
f 645 557 650
f 650 558 651
f 651 561 654
f 654 705 885
f 645 547 556
f 652 555 554
f 652 560 555
f 653 639 560
f 655 640 639
f 655 642 640
f 888 806 642
f 648 649 552
f 646 645 887
f 645 650 887
f 646 887 647
f 647 887 648
f 648 887 649
f 649 887 652
f 650 651 887
f 651 654 887
f 654 885 887
f 652 887 653
f 653 887 655
f 655 887 888
f 649 652 554
f 652 653 560
f 653 655 639
f 655 888 642
f 885 705 706
f 886 706 707
f 886 707 708
f 890 708 709
f 891 709 710
f 885 706 886
f 886 708 890
f 890 709 891
f 891 710 894
f 889 807 806
f 892 810 807
f 898 718 711
f 892 811 810
f 893 711 811
f 894 714 895
f 895 716 896
f 896 721 897
f 894 710 712
f 894 712 713
f 894 713 714
f 895 715 716
f 895 714 715
f 896 716 717
f 898 719 718
f 898 720 719
f 897 722 720
f 897 721 722
f 896 717 721
f 885 886 887
f 886 890 887
f 887 890 891
f 887 889 888
f 887 892 889
f 887 893 892
f 887 891 894
f 887 894 895
f 887 897 898
f 887 895 896
f 887 896 897
f 887 898 893
f 888 889 806
f 889 892 807
f 892 893 811
f 893 898 711
f 898 897 720

